HIERARCHY
ROOT Hips
{
	OFFSET 0.000000 91.145859 0.000000
	CHANNELS 6 Xposition Yposition Zposition Xrotation Yrotation Zrotation
	JOINT RightUpLeg
	{
		OFFSET -7.978667 0.020721 -0.002302
		CHANNELS 6 Xposition Yposition Zposition Xrotation Yrotation Zrotation
		JOINT RightLeg
		{
			OFFSET 0.000000 -41.199940 -0.001896
			CHANNELS 6 Xposition Yposition Zposition Xrotation Yrotation Zrotation
			JOINT RightFoot
			{
				OFFSET 0.000000 -40.188831 -0.003196
				CHANNELS 6 Xposition Yposition Zposition Xrotation Yrotation Zrotation
				JOINT RightToeBase
				{
					OFFSET 0.000000 -7.938999 18.143169
					CHANNELS 6 Xposition Yposition Zposition Xrotation Yrotation Zrotation
					End Site
					{
						OFFSET 0.000000 19.804098 0.000000
					}
				}
			}
		}
	}
	JOINT LeftUpLeg
	{
		OFFSET 7.978667 0.018547 -0.002061
		CHANNELS 6 Xposition Yposition Zposition Xrotation Yrotation Zrotation
		JOINT LeftLeg
		{
			OFFSET 0.000000 -41.199940 -0.001896
			CHANNELS 6 Xposition Yposition Zposition Xrotation Yrotation Zrotation
			JOINT LeftFoot
			{
				OFFSET 0.000000 -40.188831 -0.003196
				CHANNELS 6 Xposition Yposition Zposition Xrotation Yrotation Zrotation
				JOINT LeftToeBase
				{
					OFFSET 0.000000 -7.938999 18.143169
					CHANNELS 6 Xposition Yposition Zposition Xrotation Yrotation Zrotation
					End Site
					{
						OFFSET 0.000000 19.804098 0.000000
					}
				}
			}
		}
	}
	JOINT Spine
	{
		OFFSET 0.000000 9.664909 -1.073879
		CHANNELS 6 Xposition Yposition Zposition Xrotation Yrotation Zrotation
		JOINT Spine1
		{
			OFFSET 0.000000 10.672623 0.000000
			CHANNELS 3 Xrotation Yrotation Zrotation
			JOINT Spine2
			{
				OFFSET 0.000000 9.745033 -0.008022
				CHANNELS 6 Xposition Yposition Zposition Xrotation Yrotation Zrotation
				JOINT Spine3
				{
					OFFSET 0.000000 9.734146 -0.008030
					CHANNELS 6 Xposition Yposition Zposition Xrotation Yrotation Zrotation
					JOINT LeftShoulder
					{
						OFFSET 2.982584 7.645615 0.000000
						CHANNELS 6 Xposition Yposition Zposition Xrotation Yrotation Zrotation
						JOINT LeftArm
						{
							OFFSET 14.068617 0.000000 0.000000
							CHANNELS 6 Xposition Yposition Zposition Xrotation Yrotation Zrotation
							JOINT LeftForeArm
							{
								OFFSET 30.140671 0.000000 0.000000
								CHANNELS 6 Xposition Yposition Zposition Xrotation Yrotation Zrotation
								JOINT LeftHand
								{
									OFFSET 24.636703 0.000000 0.000000
									CHANNELS 6 Xposition Yposition Zposition Xrotation Yrotation Zrotation
									End Site
									{
										OFFSET 0.000000 24.636703 0.000000
									}
								}
							}
						}
					}
					JOINT RightShoulder
					{
						OFFSET -2.982584 7.645615 0.000000
						CHANNELS 6 Xposition Yposition Zposition Xrotation Yrotation Zrotation
						JOINT RightArm
						{
							OFFSET -14.068617 0.000000 0.000000
							CHANNELS 6 Xposition Yposition Zposition Xrotation Yrotation Zrotation
							JOINT RightForeArm
							{
								OFFSET -30.140671 0.000000 0.000000
								CHANNELS 6 Xposition Yposition Zposition Xrotation Yrotation Zrotation
								JOINT RightHand
								{
									OFFSET -24.636703 0.000000 0.000000
									CHANNELS 6 Xposition Yposition Zposition Xrotation Yrotation Zrotation
									End Site
									{
										OFFSET 0.000000 24.636703 0.000000
									}
								}
							}
						}
					}
					JOINT Neck
					{
						OFFSET 0.000000 13.630920 0.000000
						CHANNELS 6 Xposition Yposition Zposition Xrotation Yrotation Zrotation
						JOINT Head
						{
							OFFSET 0.000000 9.064636 0.017252
							CHANNELS 6 Xposition Yposition Zposition Xrotation Yrotation Zrotation
							End Site
							{
								OFFSET 0.000000 9.064651 0.000000
							}
						}
					}
				}
			}
		}
	}
}
MOTION
Frames: 5
Frame Time: 0.008333
79.656586 132.749603 -75.454681 -156.468610 14.438764 -2.551692 -7.978665 0.020706 -0.002312 -81.538334 2.536597 -4.852583 0.000000 -41.199947 -0.001890 115.992964 1.366419 -1.452910 0.000000 -40.188828 -0.003209 -12.763065 0.009808 10.987852 -0.000002 -7.939012 18.143166 0.000001 0.000000 0.000000 7.978669 0.018532 -0.002069 -75.191244 1.885455 13.093423 0.000019 -41.199947 -0.001878 111.813141 -3.015546 -1.717100 -0.000001 -40.188858 -0.003156 -12.547560 -24.363425 -23.119360 0.000009 -7.939016 18.143150 -0.000001 -0.000001 -0.000000 -0.000001 9.664895 -1.073889 21.943303 0.273446 0.353262 3.926359 0.087103 0.179319 0.000002 9.745025 -0.008013 9.746731 0.087142 0.179134 0.000001 9.734143 -0.008009 13.146694 0.075982 0.128594 2.982581 7.645621 -0.000003 -1.127063 -4.124661 -6.095032 14.068614 -0.000003 0.000007 -50.478441 12.252549 -59.051425 30.140663 -0.000002 -0.000026 -6.879036 -55.636648 -40.907775 24.636696 0.000000 -0.000003 19.810330 -5.651373 -22.287237 -2.982584 7.645607 -0.000000 -3.066030 3.302613 1.483263 -14.068621 0.000014 0.000010 -37.635630 -4.506705 66.315557 -30.140671 -0.000004 -0.000005 -6.328957 55.723289 25.689672 -24.636709 0.000005 0.000005 10.224184 -3.052066 25.851583 -0.000002 13.630919 0.000002 3.524707 -2.287671 -0.801708 -0.000001 9.064630 0.017231 -29.542627 -3.642584 -2.629299 
79.651932 134.279694 -77.049179 -165.901129 15.102942 -2.073743 -7.978679 0.020712 -0.002311 -82.798654 2.970532 -5.658189 -0.000006 -41.199936 -0.001909 117.948693 2.207875 -2.536208 0.000007 -40.188843 -0.003202 -14.704286 -3.121851 9.201160 -0.000006 -7.939000 18.143160 0.000000 0.000000 -0.000000 7.978666 0.018572 -0.002065 -77.939084 2.049414 15.091612 0.000002 -41.199932 -0.001888 113.139017 -4.333836 -2.425787 -0.000005 -40.188835 -0.003169 -14.793876 -24.803262 -24.210053 0.000011 -7.938982 18.143181 0.000000 0.000000 -0.000000 0.000001 9.664922 -1.073889 22.089272 0.274352 0.545885 3.991288 0.069397 0.263781 0.000003 9.745050 -0.008040 9.811629 0.069371 0.263687 -0.000012 9.734159 -0.008008 13.195365 0.067753 0.192988 2.982582 7.645620 0.000016 -1.660592 -3.696251 -6.357096 14.068616 0.000002 -0.000009 -49.308246 14.360611 -56.960509 30.140676 -0.000011 -0.000004 -13.973292 -57.229547 -48.800530 24.636717 -0.000004 0.000008 19.568024 -5.697552 -20.203486 -2.982590 7.645617 0.000011 -3.390077 3.042576 1.369146 -14.068624 0.000002 -0.000013 -35.984435 -5.907106 67.170054 -30.140671 0.000000 -0.000012 -8.087484 59.416485 26.198767 -24.636696 -0.000015 0.000001 10.975532 -3.365308 24.708464 -0.000002 13.630918 0.000008 3.267545 -2.399778 -0.758925 0.000003 9.064650 0.017251 -30.025703 -3.858219 -2.620449 
79.730904 135.329224 -79.614349 -177.787201 15.459857 -1.334073 -7.978668 0.020740 -0.002295 -84.143040 3.817761 -6.667440 0.000000 -41.199917 -0.001913 118.756936 2.556350 -3.240420 0.000001 -40.188824 -0.003199 -16.957572 -6.686303 6.566126 -0.000003 -7.939008 18.143164 0.000001 0.000000 0.000000 7.978655 0.018571 -0.002047 -80.940112 1.614106 17.272017 -0.000006 -41.199940 -0.001895 112.921796 -4.746243 -3.434149 -0.000003 -40.188847 -0.003169 -17.405702 -24.336775 -25.330018 0.000001 -7.939015 18.143162 0.000001 0.000001 -0.000001 -0.000008 9.664927 -1.073868 22.276920 0.301157 0.687422 4.075014 0.067726 0.328368 0.000005 9.745030 -0.008036 9.895438 0.067732 0.328381 -0.000007 9.734149 -0.008025 13.258242 0.070427 0.241556 2.982586 7.645592 -0.000008 -2.427763 -3.204820 -6.732023 14.068613 0.000004 -0.000008 -48.180062 16.848574 -54.492410 30.140667 -0.000003 -0.000010 -21.818358 -58.830796 -57.710666 24.636705 0.000006 -0.000004 19.618953 -5.801549 -17.948895 -2.982589 7.645609 -0.000005 -3.785238 2.737769 1.131490 -14.068629 0.000000 -0.000009 -34.259717 -7.933133 67.922318 -30.140663 -0.000003 -0.000010 -9.991363 63.635315 27.325864 -24.636700 -0.000017 -0.000014 11.944711 -3.671851 23.418926 0.000000 13.630908 -0.000008 3.049322 -2.477330 -0.833148 0.000005 9.064631 0.017252 -30.437024 -3.949495 -2.799996 
79.893265 135.447357 -82.804184 -189.753665 15.264400 -0.592028 -7.978666 0.020740 -0.002307 -85.333358 5.168636 -7.634976 0.000003 -41.199940 -0.001900 117.834833 1.556810 -3.075096 0.000007 -40.188835 -0.003189 -19.230995 -9.544757 3.476541 -0.000007 -7.939003 18.143190 -0.000000 -0.000000 0.000000 7.978661 0.018562 -0.002062 -83.480915 0.499410 18.939324 0.000000 -41.199951 -0.001873 110.345155 -3.839323 -3.922205 -0.000007 -40.188835 -0.003203 -19.667844 -22.753513 -25.650671 0.000006 -7.938974 18.143173 -0.000001 -0.000001 0.000006 0.000002 9.664924 -1.073883 22.501505 0.395297 0.715045 4.174878 0.106093 0.349508 0.000007 9.745048 -0.008045 9.995234 0.106209 0.349610 -0.000003 9.734130 -0.008028 13.333049 0.100511 0.255182 2.982576 7.645620 0.000001 -3.408684 -2.756246 -7.228352 14.068613 0.000002 -0.000008 -47.536785 19.496521 -51.891840 30.140661 0.000018 -0.000004 -29.140818 -60.692439 -67.016395 24.636711 0.000002 0.000000 20.058864 -5.872634 -16.559655 -2.982591 7.645629 -0.000002 -4.227040 2.451966 0.803954 -14.068618 0.000001 -0.000012 -32.926710 -10.726694 67.735990 -30.140676 0.000011 0.000002 -13.400467 67.454361 31.439245 -24.636698 -0.000014 0.000001 12.897199 -4.005770 22.337157 -0.000006 13.630925 -0.000002 3.012278 -2.402356 -1.108100 0.000015 9.064651 0.017254 -30.504431 -3.668896 -3.248575 
80.078156 134.828156 -85.672081 -199.215199 14.805072 -0.038957 -7.978670 0.020743 -0.002291 -86.129935 6.192247 -8.152762 -0.000000 -41.199917 -0.001911 115.842467 0.342471 -2.927426 0.000004 -40.188839 -0.003198 -21.105283 -11.367036 1.167882 0.000008 -7.938993 18.143192 0.000000 0.000000 -0.000000 7.978664 0.018568 -0.002062 -85.009538 -0.522163 19.860971 0.000009 -41.199951 -0.001888 106.895302 -2.787997 -4.114467 0.000001 -40.188824 -0.003212 -21.262688 -20.983188 -25.380298 0.000005 -7.938982 18.143190 -0.000001 0.000000 -0.000003 0.000006 9.664928 -1.073877 22.650171 0.490652 0.684340 4.240996 0.150249 0.345096 -0.000003 9.745033 -0.008019 10.061352 0.150292 0.345188 0.000005 9.734133 -0.008025 13.382688 0.133139 0.249254 2.982584 7.645613 0.000007 -4.169995 -2.371741 -7.584074 14.068605 -0.000001 -0.000019 -47.354583 21.170687 -50.031914 30.140675 -0.000003 0.000001 -34.152032 -61.930350 -73.561219 24.636709 0.000005 0.000010 20.353726 -5.976109 -15.632017 -2.982585 7.645614 0.000007 -4.541925 2.250801 0.500428 -14.068619 0.000004 -0.000014 -32.232619 -12.699643 67.358602 -30.140659 0.000000 0.000005 -16.585096 69.944183 35.287605 -24.636715 0.000001 0.000003 13.549414 -4.121903 21.601132 -0.000001 13.630914 0.000015 3.042008 -2.315481 -1.297001 0.000002 9.064644 0.017242 -30.444462 -3.415240 -3.536186 
